<svg xmlns="http://www.w3.org/2000/svg" xml:space="preserve" x="0px" y="0px" style="enable-background:new 0 0 900.1 900.1" viewBox="0 0 900.1 900.1"><path d="M450.1 0C201.5 0 0 201.5 0 450.1s201.5 450.1 450.1 450.1 450.1-201.5 450.1-450.1S698.6 0 450.1 0zM100.6 677.7c-13.5-20.6-25.1-42.4-34.7-65.3-21.7-51.4-32.8-106-32.8-162.3 0-48.4 8.1-95.4 24.2-140.3l43.3 30.1v337.8zm644.3 67.2c-38.3 38.3-82.9 68.4-132.5 89.4C561 856 506.4 867 450.1 867s-110.9-11-162.3-32.8c-49.7-21-94.2-51.1-132.6-89.4-12.1-12.1-23.3-24.8-33.8-38.1h230.4l90.7-65.7V283.6L351.9 216h-247c14.7-21.7 31.5-42 50.3-60.7 38.3-38.3 82.9-68.4 132.6-89.4 51.4-21.7 106-32.8 162.3-32.8s110.9 11 162.3 32.8c49.6 21 94.2 51.1 132.5 89.4 18.8 18.8 35.6 39.1 50.3 60.7h-65.9l-14.8 32.7-44-32.7H568.2l-90.1 67.6v357.6l89.7 65.7h210.9c-10.4 13.2-21.7 25.9-33.8 38zM192.6 328.3H275c23.1 0 41.7 18.7 41.7 41.7v184.8c0 23-18.7 41.7-41.7 41.7h-49.4V352.2l-33-23.9zm617.9 331.5V532.4H693.9v64.2h-50.4c-22 0-39.9-17.9-39.9-39.9V352.3l-33-23.9h123.3v70h106.9l21.3-136.9c4.4 8.6 8.4 17.4 12.2 26.3 21.7 51.4 32.8 106 32.8 162.3s-11 110.9-32.8 162.3c-7 16.4-14.9 32.2-23.8 47.4z" class="st0" style="fill:#0376f2"/></svg>